BioRhyme-Bold.ufo
<glyph name="three" format="1">
  <advance width="473"/>
  <unicode hex="0033"/>
  <outline>
    <contour>
      <point x="352" y="-5"/>
      <point x="445" y="48"/>
      <point x="445" y="124" type="curve" smooth="yes"/>
      <point x="445" y="217"/>
      <point x="355" y="250"/>
      <point x="189" y="250" type="curve"/>
      <point x="189" y="214" type="line"/>
      <point x="312" y="213"/>
      <point x="426" y="262"/>
      <point x="426" y="347" type="curve" smooth="yes"/>
      <point x="426" y="431"/>
      <point x="346" y="480"/>
      <point x="235" y="480" type="curve" smooth="yes"/>
      <point x="148" y="480"/>
      <point x="65" y="437"/>
      <point x="17" y="392" type="curve"/>
      <point x="74" y="315" type="line"/>
      <point x="120" y="354"/>
      <point x="172" y="383"/>
      <point x="229" y="383" type="curve" smooth="yes"/>
      <point x="279" y="383"/>
      <point x="305" y="362"/>
      <point x="305" y="335" type="curve" smooth="yes"/>
      <point x="305" y="298"/>
      <point x="262" y="277"/>
      <point x="166" y="277" type="curve" smooth="yes"/>
      <point x="103" y="277" type="line"/>
      <point x="103" y="190" type="line"/>
      <point x="166" y="190" type="line" smooth="yes"/>
      <point x="283" y="190"/>
      <point x="324" y="172"/>
      <point x="324" y="137" type="curve" smooth="yes"/>
      <point x="324" y="108"/>
      <point x="288" y="91"/>
      <point x="233" y="91" type="curve" smooth="yes"/>
      <point x="166" y="91"/>
      <point x="100" y="114"/>
      <point x="58" y="145" type="curve"/>
      <point x="16" y="60" type="line"/>
      <point x="56" y="33"/>
      <point x="123" y="-5"/>
      <point x="233" y="-5" type="curve" smooth="yes"/>
    </contour>
  </outline>
</glyph>
<glyph name="question" format="1">
  <advance width="414"/>
  <unicode hex="003F"/>
  <outline>
    <contour>
      <point x="196" y="144" type="line"/>
      <point x="193" y="155"/>
      <point x="191" y="166"/>
      <point x="191" y="177" type="curve" smooth="yes"/>
      <point x="191" y="201"/>
      <point x="211" y="211"/>
      <point x="284" y="250" type="curve" smooth="yes"/>
      <point x="351" y="285"/>
      <point x="408" y="327"/>
      <point x="408" y="393" type="curve" smooth="yes"/>
      <point x="408" y="477"/>
      <point x="330" y="530"/>
      <point x="228" y="530" type="curve" smooth="yes"/>
      <point x="148" y="530"/>
      <point x="88" y="506"/>
      <point x="27" y="473" type="curve"/>
      <point x="65" y="383" type="line"/>
      <point x="112" y="410"/>
      <point x="164" y="434"/>
      <point x="218" y="434" type="curve" smooth="yes"/>
      <point x="256" y="434"/>
      <point x="280" y="415"/>
      <point x="280" y="393" type="curve" smooth="yes"/>
      <point x="280" y="365"/>
      <point x="254" y="351"/>
      <point x="204" y="327" type="curve" smooth="yes"/>
      <point x="143" y="298"/>
      <point x="110" y="276"/>
      <point x="110" y="236" type="curve" smooth="yes"/>
      <point x="110" y="201"/>
      <point x="130" y="169"/>
      <point x="159" y="131" type="curve"/>
    </contour>
    <contour>
      <point x="241" y="-10"/>
      <point x="272" y="15"/>
      <point x="272" y="49" type="curve"/>
      <point x="272" y="86"/>
      <point x="241" y="111"/>
      <point x="198" y="111" type="curve"/>
      <point x="158" y="111"/>
      <point x="124" y="86"/>
      <point x="124" y="49" type="curve"/>
      <point x="124" y="15"/>
      <point x="158" y="-10"/>
      <point x="198" y="-10" type="curve"/>
    </contour>
  </outline>
</glyph>
<glyph name="F" format="1">
  <advance width="587"/>
  <unicode hex="0046"/>
  <outline>
    <contour>
      <point x="576" y="320" type="line"/>
      <point x="576" y="520" type="line"/>
      <point x="25" y="520" type="line"/>
      <point x="25" y="424" type="line"/>
      <point x="468" y="424" type="line"/>
      <point x="468" y="320" type="line"/>
    </contour>
    <contour>
      <point x="321" y="0" type="line"/>
      <point x="321" y="96" type="line"/>
      <point x="25" y="96" type="line"/>
      <point x="25" y="0" type="line"/>
    </contour>
    <contour>
      <point x="232" y="53" type="line"/>
      <point x="232" y="464" type="line"/>
      <point x="110" y="464" type="line"/>
      <point x="110" y="53" type="line"/>
    </contour>
    <contour>
      <point x="373" y="204" type="line"/>
      <point x="373" y="301" type="line"/>
      <point x="154" y="301" type="line"/>
      <point x="154" y="204" type="line"/>
    </contour>
    <contour>
      <point x="413" y="149" type="line"/>
      <point x="413" y="356" type="line"/>
      <point x="317" y="356" type="line"/>
      <point x="317" y="149" type="line"/>
    </contour>
    <contour>
      <point x="305" y="527" type="move" name="top"/>
    </contour>
    <contour>
      <point x="305" y="0" type="move" name="bottom"/>
    </contour>
  </outline>
</glyph>
<glyph name="H" format="1">
  <advance width="728"/>
  <unicode hex="0048"/>
  <outline>
    <contour>
      <point x="581" y="217" type="line"/>
      <point x="581" y="313" type="line"/>
      <point x="148" y="313" type="line"/>
      <point x="148" y="217" type="line"/>
    </contour>
    <contour>
      <point x="317" y="0" type="line"/>
      <point x="317" y="96" type="line"/>
      <point x="25" y="96" type="line"/>
      <point x="25" y="0" type="line"/>
    </contour>
    <contour>
      <point x="233" y="53" type="line"/>
      <point x="233" y="464" type="line"/>
      <point x="110" y="464" type="line"/>
      <point x="110" y="53" type="line"/>
    </contour>
    <contour>
      <point x="317" y="424" type="line"/>
      <point x="317" y="520" type="line"/>
      <point x="25" y="520" type="line"/>
      <point x="25" y="424" type="line"/>
    </contour>
    <contour>
      <point x="703" y="0" type="line"/>
      <point x="703" y="96" type="line"/>
      <point x="412" y="96" type="line"/>
      <point x="412" y="0" type="line"/>
    </contour>
    <contour>
      <point x="619" y="56" type="line"/>
      <point x="619" y="467" type="line"/>
      <point x="496" y="467" type="line"/>
      <point x="496" y="56" type="line"/>
    </contour>
    <contour>
      <point x="703" y="424" type="line"/>
      <point x="703" y="520" type="line"/>
      <point x="412" y="520" type="line"/>
      <point x="412" y="424" type="line"/>
    </contour>
    <contour>
      <point x="363" y="257" type="move" name="center"/>
    </contour>
    <contour>
      <point x="363" y="0" type="move" name="bottom"/>
    </contour>
    <contour>
      <point x="363" y="527" type="move" name="top"/>
    </contour>
  </outline>
</glyph>
<glyph name="V" format="1">
  <advance width="679"/>
  <unicode hex="0056"/>
  <outline>
    <contour>
      <point x="0" y="520" type="line"/>
      <point x="0" y="424" type="line"/>
      <point x="276" y="424" type="line"/>
      <point x="276" y="520" type="line"/>
    </contour>
    <contour>
      <point x="405" y="520" type="line"/>
      <point x="405" y="424" type="line"/>
      <point x="679" y="424" type="line"/>
      <point x="679" y="520" type="line"/>
    </contour>
    <contour>
      <point x="371" y="-10" type="line"/>
      <point x="640" y="507" type="line"/>
      <point x="518" y="507" type="line"/>
      <point x="343" y="144" type="line"/>
      <point x="167" y="507" type="line"/>
      <point x="39" y="507" type="line"/>
      <point x="307" y="-10" type="line"/>
    </contour>
    <contour>
      <point x="339" y="490" type="move" name="top"/>
    </contour>
    <contour>
      <point x="339" y="0" type="move" name="bottom"/>
    </contour>
  </outline>
</glyph>
<glyph name="X" format="1">
  <advance width="666"/>
  <unicode hex="0058"/>
  <outline>
    <contour>
      <point x="654" y="0" type="line"/>
      <point x="654" y="96" type="line"/>
      <point x="385" y="96" type="line"/>
      <point x="385" y="0" type="line"/>
    </contour>
    <contour>
      <point x="281" y="0" type="line"/>
      <point x="281" y="96" type="line"/>
      <point x="12" y="96" type="line"/>
      <point x="12" y="0" type="line"/>
    </contour>
    <contour>
      <point x="625" y="79" type="line"/>
      <point x="388" y="292" type="line"/>
      <point x="375" y="292" type="line"/>
      <point x="211" y="442" type="line"/>
      <point x="44" y="442" type="line"/>
      <point x="285" y="225" type="line"/>
      <point x="299" y="225" type="line"/>
      <point x="458" y="79" type="line"/>
    </contour>
    <contour>
      <point x="189" y="79" type="line"/>
      <point x="356" y="233" type="line"/>
      <point x="374" y="232" type="line"/>
      <point x="607" y="442" type="line"/>
      <point x="467" y="442" type="line"/>
      <point x="311" y="299" type="line"/>
      <point x="292" y="301" type="line"/>
      <point x="48" y="79" type="line"/>
    </contour>
    <contour>
      <point x="282" y="424" type="line"/>
      <point x="282" y="520" type="line" smooth="yes"/>
      <point x="12" y="520" type="line"/>
      <point x="12" y="424" type="line"/>
    </contour>
    <contour>
      <point x="654" y="424" type="line"/>
      <point x="654" y="520" type="line"/>
      <point x="384" y="520" type="line" smooth="yes"/>
      <point x="384" y="424" type="line"/>
    </contour>
    <contour>
      <point x="332" y="490" type="move" name="top"/>
    </contour>
    <contour>
      <point x="332" y="0" type="move" name="bottom"/>
    </contour>
  </outline>
</glyph>
<glyph name="underscore" format="1">
  <advance width="279"/>
  <unicode hex="005F"/>
  <outline>
    <contour>
      <point x="-35" y="-68" type="line"/>
      <point x="-35" y="-164" type="line"/>
      <point x="314" y="-164" type="line"/>
      <point x="314" y="-68" type="line"/>
    </contour>
  </outline>
</glyph>
<glyph name="f" format="1">
  <advance width="344"/>
  <unicode hex="0066"/>
  <outline>
    <contour>
      <point x="25" y="0" type="line"/>
      <point x="292" y="0" type="line"/>
      <point x="292" y="90" type="line"/>
      <point x="25" y="90" type="line"/>
    </contour>
    <contour>
      <point x="96" y="0" type="line"/>
      <point x="209" y="0" type="line"/>
      <point x="209" y="403" type="line"/>
      <point x="209" y="427"/>
      <point x="232" y="454"/>
      <point x="277" y="454" type="curve" smooth="yes"/>
      <point x="316" y="454"/>
      <point x="339" y="441"/>
      <point x="377" y="421" type="curve"/>
      <point x="418" y="513" type="line"/>
      <point x="368" y="536"/>
      <point x="327" y="555"/>
      <point x="262" y="555" type="curve" smooth="yes"/>
      <point x="162" y="555"/>
      <point x="96" y="493"/>
      <point x="96" y="401" type="curve"/>
    </contour>
    <contour>
      <point x="316" y="357" type="line"/>
      <point x="25" y="357" type="line"/>
      <point x="25" y="267" type="line"/>
      <point x="316" y="267" type="line"/>
    </contour>
    <contour>
      <point x="154" y="601" type="move" name="top"/>
    </contour>
    <contour>
      <point x="154" y="0" type="move" name="bottom"/>
    </contour>
  </outline>
</glyph>
<glyph name="u" format="1">
  <advance width="508"/>
  <unicode hex="0075"/>
  <outline>
    <contour>
      <point x="258" y="-10"/>
      <point x="309" y="35"/>
      <point x="381" y="129" type="curve"/>
      <point x="381" y="219" type="line"/>
      <point x="326" y="139"/>
      <point x="278" y="97"/>
      <point x="235" y="97" type="curve" smooth="yes"/>
      <point x="185" y="97"/>
      <point x="172" y="128"/>
      <point x="172" y="168" type="curve" smooth="yes"/>
      <point x="172" y="356" type="line"/>
      <point x="57" y="356" type="line"/>
      <point x="57" y="168" type="line" smooth="yes"/>
      <point x="57" y="50"/>
      <point x="106" y="-10"/>
      <point x="192" y="-10" type="curve" smooth="yes"/>
    </contour>
    <contour>
      <point x="174" y="267" type="line"/>
      <point x="174" y="357" type="line"/>
      <point x="-5" y="357" type="line"/>
      <point x="-5" y="267" type="line"/>
    </contour>
    <contour>
      <point x="461" y="-5"/>
      <point x="483" y="4"/>
      <point x="502" y="12" type="curve"/>
      <point x="480" y="93" type="line"/>
      <point x="474" y="92"/>
      <point x="471" y="90"/>
      <point x="464" y="90" type="curve" smooth="yes"/>
      <point x="454" y="90"/>
      <point x="442" y="94"/>
      <point x="442" y="113" type="curve"/>
      <point x="442" y="357" type="line"/>
      <point x="327" y="357" type="line"/>
      <point x="327" y="101" type="line"/>
      <point x="327" y="35"/>
      <point x="371" y="-5"/>
      <point x="428" y="-5" type="curve" smooth="yes"/>
    </contour>
    <contour>
      <point x="428" y="267" type="line"/>
      <point x="428" y="357" type="line"/>
      <point x="271" y="357" type="line"/>
      <point x="271" y="267" type="line"/>
    </contour>
    <contour>
      <point x="485" y="2" type="move" name="ogonek"/>
    </contour>
    <contour>
      <point x="228" y="345" type="move" name="top"/>
    </contour>
    <contour>
      <point x="449" y="357" type="move" name="topright"/>
    </contour>
    <contour>
      <point x="205" y="-8" type="move" name="bottom"/>
    </contour>
  </outline>
</glyph>
<glyph name="plusminus" format="1">
  <advance width="447"/>
  <unicode hex="00B1"/>
  <outline>
    <contour>
      <point x="172" y="171" type="line"/>
      <point x="270" y="171" type="line"/>
      <point x="270" y="449" type="line"/>
      <point x="172" y="449" type="line"/>
    </contour>
    <contour>
      <point x="67" y="359" type="line"/>
      <point x="67" y="262" type="line"/>
      <point x="381" y="262" type="line"/>
      <point x="381" y="359" type="line"/>
    </contour>
    <contour>
      <point x="67" y="133" type="line"/>
      <point x="67" y="37" type="line"/>
      <point x="377" y="37" type="line"/>
      <point x="377" y="133" type="line"/>
    </contour>
  </outline>
</glyph>
<glyph name="acutecomb" format="1">
  <advance width="355"/>
  <unicode hex="0301"/>
  <outline>
    <contour>
      <point x="240" y="666" type="line"/>
      <point x="298" y="583" type="line"/>
      <point x="88" y="481" type="line"/>
      <point x="58" y="524" type="line"/>
    </contour>
    <contour>
      <point x="181" y="421" type="move" name="_top"/>
    </contour>
  </outline>
</glyph>
<glyph name="tildecomb" format="1">
  <advance width="401"/>
  <unicode hex="0303"/>
  <outline>
    <contour>
      <point x="326" y="487"/>
      <point x="358" y="547"/>
      <point x="358" y="607" type="curve"/>
      <point x="295" y="612" type="line"/>
      <point x="292" y="580"/>
      <point x="287" y="549"/>
      <point x="264" y="549" type="curve" smooth="yes"/>
      <point x="252" y="549"/>
      <point x="241" y="561"/>
      <point x="223" y="580" type="curve" smooth="yes"/>
      <point x="202" y="600"/>
      <point x="179" y="623"/>
      <point x="137" y="623" type="curve" smooth="yes"/>
      <point x="75" y="623"/>
      <point x="43" y="563"/>
      <point x="43" y="503" type="curve"/>
      <point x="107" y="497" type="line"/>
      <point x="110" y="530"/>
      <point x="114" y="561"/>
      <point x="137" y="561" type="curve" smooth="yes"/>
      <point x="150" y="561"/>
      <point x="161" y="549"/>
      <point x="179" y="530" type="curve" smooth="yes"/>
      <point x="200" y="510"/>
      <point x="223" y="487"/>
      <point x="264" y="487" type="curve" smooth="yes"/>
    </contour>
    <contour>
      <point x="212" y="391" type="move" name="_top"/>
    </contour>
  </outline>
</glyph>
<glyph name="uni0308" format="1">
  <advance width="424"/>
  <unicode hex="0308"/>
  <outline>
    <contour>
      <point x="337" y="504"/>
      <point x="364" y="527"/>
      <point x="364" y="556" type="curve"/>
      <point x="364" y="587"/>
      <point x="337" y="610"/>
      <point x="302" y="610" type="curve"/>
      <point x="269" y="610"/>
      <point x="240" y="587"/>
      <point x="240" y="556" type="curve"/>
      <point x="240" y="527"/>
      <point x="269" y="504"/>
      <point x="302" y="504" type="curve"/>
    </contour>
    <contour>
      <point x="159" y="504"/>
      <point x="186" y="527"/>
      <point x="186" y="556" type="curve"/>
      <point x="186" y="587"/>
      <point x="159" y="610"/>
      <point x="124" y="610" type="curve"/>
      <point x="91" y="610"/>
      <point x="62" y="587"/>
      <point x="62" y="556" type="curve"/>
      <point x="62" y="527"/>
      <point x="91" y="504"/>
      <point x="124" y="504" type="curve"/>
    </contour>
    <contour>
      <point x="215" y="427" type="move" name="_top"/>
    </contour>
  </outline>
</glyph>
<glyph name="uni0328" format="1">
  <advance width="255"/>
  <unicode hex="0328"/>
  <outline>
    <contour>
      <point x="134" y="16" type="line"/>
      <point x="102" y="1"/>
      <point x="43" y="-33"/>
      <point x="43" y="-101" type="curve" smooth="yes"/>
      <point x="43" y="-148"/>
      <point x="84" y="-174"/>
      <point x="130" y="-174" type="curve" smooth="yes"/>
      <point x="166" y="-174"/>
      <point x="187" y="-166"/>
      <point x="212" y="-153" type="curve"/>
      <point x="190" y="-93" type="line"/>
      <point x="173" y="-103"/>
      <point x="158" y="-108"/>
      <point x="141" y="-108" type="curve" smooth="yes"/>
      <point x="127" y="-108"/>
      <point x="111" y="-100"/>
      <point x="111" y="-82" type="curve" smooth="yes"/>
      <point x="111" y="-47"/>
      <point x="151" y="-21"/>
      <point x="171" y="-7" type="curve"/>
    </contour>
    <contour>
      <point x="171" y="-7" type="move" name="_ogonek"/>
    </contour>
  </outline>
</glyph>
<glyph name="quotedblbase" format="1">
  <advance width="459"/>
  <unicode hex="201E"/>
  <outline>
    <contour>
      <point x="368" y="-97"/>
      <point x="415" y="-41"/>
      <point x="415" y="14" type="curve" smooth="yes"/>
      <point x="415" y="69"/>
      <point x="382" y="100"/>
      <point x="332" y="100" type="curve" smooth="yes"/>
      <point x="289" y="100"/>
      <point x="255" y="79"/>
      <point x="255" y="44" type="curve" smooth="yes"/>
      <point x="255" y="13"/>
      <point x="283" y="-10"/>
      <point x="320" y="-10" type="curve" smooth="yes"/>
      <point x="333" y="-10"/>
      <point x="346" y="-8"/>
      <point x="354" y="-5" type="curve"/>
      <point x="353" y="-43"/>
      <point x="319" y="-79"/>
      <point x="280" y="-120" type="curve"/>
      <point x="309" y="-149" type="line"/>
    </contour>
    <contour>
      <point x="157" y="-94"/>
      <point x="204" y="-39"/>
      <point x="204" y="16" type="curve" smooth="yes"/>
      <point x="204" y="72"/>
      <point x="171" y="103"/>
      <point x="121" y="103" type="curve" smooth="yes"/>
      <point x="78" y="103"/>
      <point x="44" y="82"/>
      <point x="44" y="47" type="curve" smooth="yes"/>
      <point x="44" y="15"/>
      <point x="72" y="-8"/>
      <point x="109" y="-8" type="curve" smooth="yes"/>
      <point x="122" y="-8"/>
      <point x="135" y="-6"/>
      <point x="143" y="-3" type="curve"/>
      <point x="142" y="-40"/>
      <point x="108" y="-77"/>
      <point x="69" y="-117" type="curve"/>
      <point x="98" y="-146" type="line"/>
    </contour>
  </outline>
</glyph>
<glyph name="Q.alt" format="1">
  <advance width="625"/>
  <outline>
    <contour>
      <point x="882" y="-228"/>
      <point x="951" y="-198"/>
      <point x="998" y="-164" type="curve"/>
      <point x="953" y="-79" type="line"/>
      <point x="908" y="-110"/>
      <point x="863" y="-128"/>
      <point x="803" y="-128" type="curve" smooth="yes"/>
      <point x="713" y="-128"/>
      <point x="646" y="-72"/>
      <point x="549" y="59" type="curve" smooth="yes"/>
      <point x="419" y="233"/>
      <point x="343" y="284"/>
      <point x="141" y="284" type="curve" smooth="yes"/>
      <point x="98" y="284" type="line"/>
      <point x="98" y="197" type="line"/>
      <point x="144" y="197" type="line" smooth="yes"/>
      <point x="288" y="197"/>
      <point x="348" y="156"/>
      <point x="453" y="11" type="curve" smooth="yes"/>
      <point x="590" y="-179"/>
      <point x="677" y="-228"/>
      <point x="803" y="-228" type="curve" smooth="yes"/>
    </contour>
    <contour>
      <point x="472" y="-10"/>
      <point x="592" y="110"/>
      <point x="592" y="260" type="curve"/>
      <point x="592" y="410"/>
      <point x="472" y="530"/>
      <point x="309" y="530" type="curve"/>
      <point x="145" y="530"/>
      <point x="25" y="410"/>
      <point x="25" y="260" type="curve"/>
      <point x="25" y="110"/>
      <point x="145" y="-10"/>
      <point x="309" y="-10" type="curve"/>
    </contour>
    <contour>
      <point x="207" y="81"/>
      <point x="150" y="162"/>
      <point x="150" y="260" type="curve"/>
      <point x="150" y="357"/>
      <point x="207" y="439"/>
      <point x="308" y="439" type="curve"/>
      <point x="409" y="439"/>
      <point x="466" y="358"/>
      <point x="466" y="260" type="curve"/>
      <point x="466" y="163"/>
      <point x="409" y="81"/>
      <point x="308" y="81" type="curve"/>
    </contour>
    <contour>
      <point x="307" y="530" type="move" name="top"/>
    </contour>
    <contour>
      <point x="307" y="-10" type="move" name="bottom"/>
    </contour>
  </outline>
</glyph>
<glyph name="d.alt" format="1">
  <advance width="518"/>
  <outline>
    <contour>
      <point x="301" y="-11"/>
      <point x="354" y="58"/>
      <point x="392" y="98" type="curve"/>
      <point x="392" y="181" type="line"/>
      <point x="350" y="139"/>
      <point x="295" y="87"/>
      <point x="241" y="86" type="curve" smooth="yes"/>
      <point x="182" y="85"/>
      <point x="149" y="125"/>
      <point x="149" y="177" type="curve" smooth="yes"/>
      <point x="149" y="232"/>
      <point x="187" y="272"/>
      <point x="250" y="272" type="curve" smooth="yes"/>
      <point x="303" y="272"/>
      <point x="358" y="225"/>
      <point x="390" y="182" type="curve"/>
      <point x="390" y="259" type="line"/>
      <point x="359" y="301"/>
      <point x="311" y="367"/>
      <point x="220" y="367" type="curve" smooth="yes"/>
      <point x="101" y="367"/>
      <point x="21" y="285"/>
      <point x="21" y="177" type="curve" smooth="yes"/>
      <point x="21" y="69"/>
      <point x="105" y="-11"/>
      <point x="207" y="-11" type="curve" smooth="yes"/>
    </contour>
    <contour>
      <point x="490" y="-11"/>
      <point x="526" y="22"/>
      <point x="526" y="85" type="curve" smooth="yes"/>
      <point x="526" y="138" type="line"/>
      <point x="469" y="138" type="line"/>
      <point x="469" y="84" type="line" smooth="yes"/>
      <point x="469" y="73"/>
      <point x="466" y="63"/>
      <point x="455" y="63" type="curve" smooth="yes"/>
      <point x="443" y="63"/>
      <point x="442" y="74"/>
      <point x="442" y="83" type="curve" smooth="yes"/>
      <point x="442" y="520" type="line"/>
      <point x="326" y="520" type="line"/>
      <point x="326" y="85" type="line" smooth="yes"/>
      <point x="326" y="27"/>
      <point x="369" y="-11"/>
      <point x="430" y="-11" type="curve" smooth="yes"/>
    </contour>
    <contour>
      <point x="430" y="430" type="line"/>
      <point x="430" y="520" type="line"/>
      <point x="255" y="520" type="line"/>
      <point x="255" y="430" type="line"/>
    </contour>
    <contour>
      <point x="209" y="-8" type="move" name="bottom"/>
    </contour>
    <contour>
      <point x="219" y="365" type="move" name="top"/>
    </contour>
    <contour>
      <point x="527" y="357" type="move" name="topright"/>
    </contour>
    <contour>
      <point x="213" y="179" type="move" name="center"/>
    </contour>
  </outline>
</glyph>
<glyph name="f.alt" format="1">
  <advance width="332"/>
  <outline>
    <contour>
      <point x="37" y="404"/>
      <point x="65" y="378"/>
      <point x="96" y="360" type="curve"/>
      <point x="96" y="0" type="line"/>
      <point x="211" y="0" type="line"/>
      <point x="211" y="348" type="line"/>
      <point x="181" y="358"/>
      <point x="157" y="379"/>
      <point x="157" y="402" type="curve" smooth="yes"/>
      <point x="157" y="429"/>
      <point x="185" y="450"/>
      <point x="235" y="450" type="curve" smooth="yes"/>
      <point x="267" y="450"/>
      <point x="300" y="442"/>
      <point x="332" y="428" type="curve"/>
      <point x="366" y="523" type="line"/>
      <point x="314" y="541"/>
      <point x="266" y="555"/>
      <point x="194" y="555" type="curve" smooth="yes"/>
      <point x="107" y="555"/>
      <point x="37" y="508"/>
      <point x="37" y="448" type="curve" smooth="yes"/>
    </contour>
    <contour>
      <point x="25" y="357" type="line"/>
      <point x="25" y="267" type="line"/>
      <point x="291" y="267" type="line"/>
      <point x="291" y="357" type="line"/>
    </contour>
    <contour>
      <point x="25" y="0" type="line"/>
      <point x="294" y="0" type="line"/>
      <point x="294" y="90" type="line"/>
      <point x="25" y="90" type="line"/>
    </contour>
    <contour>
      <point x="210" y="601" type="move" name="top"/>
    </contour>
    <contour>
      <point x="210" y="0" type="move" name="bottom"/>
    </contour>
  </outline>
</glyph>
<glyph name="g.alt" format="1">
  <advance width="476"/>
  <outline>
    <contour>
      <point x="333" y="-190"/>
      <point x="440" y="-134"/>
      <point x="440" y="-8" type="curve" smooth="yes"/>
      <point x="440" y="372" type="line"/>
      <point x="325" y="350" type="line"/>
      <point x="325" y="-7" type="line" smooth="yes"/>
      <point x="325" y="-65"/>
      <point x="274" y="-89"/>
      <point x="232" y="-89" type="curve" smooth="yes"/>
      <point x="183" y="-89"/>
      <point x="139" y="-72"/>
      <point x="94" y="-46" type="curve"/>
      <point x="53" y="-138" type="line"/>
      <point x="110" y="-167"/>
      <point x="166" y="-190"/>
      <point x="244" y="-190" type="curve" smooth="yes"/>
    </contour>
    <contour>
      <point x="301" y="-11"/>
      <point x="354" y="58"/>
      <point x="392" y="98" type="curve"/>
      <point x="392" y="181" type="line"/>
      <point x="350" y="139"/>
      <point x="295" y="87"/>
      <point x="241" y="86" type="curve" smooth="yes"/>
      <point x="182" y="85"/>
      <point x="149" y="125"/>
      <point x="149" y="177" type="curve" smooth="yes"/>
      <point x="149" y="232"/>
      <point x="187" y="272"/>
      <point x="250" y="272" type="curve" smooth="yes"/>
      <point x="303" y="272"/>
      <point x="358" y="225"/>
      <point x="390" y="182" type="curve"/>
      <point x="390" y="259" type="line"/>
      <point x="359" y="301"/>
      <point x="311" y="367"/>
      <point x="220" y="367" type="curve" smooth="yes"/>
      <point x="101" y="367"/>
      <point x="21" y="285"/>
      <point x="21" y="177" type="curve" smooth="yes"/>
      <point x="21" y="69"/>
      <point x="105" y="-11"/>
      <point x="207" y="-11" type="curve" smooth="yes"/>
    </contour>
    <contour>
      <point x="243" y="387" type="move" name="top"/>
    </contour>
    <contour>
      <point x="243" y="-210" type="move" name="bottom"/>
    </contour>
  </outline>
</glyph>
<glyph name="k.alt" format="1">
  <advance width="516"/>
  <outline>
    <contour>
      <point x="476" y="289" type="line"/>
      <point x="331" y="277" type="line"/>
      <point x="166" y="185" type="line"/>
      <point x="173" y="110" type="line"/>
    </contour>
    <contour>
      <point x="257" y="0" type="line"/>
      <point x="257" y="90" type="line"/>
      <point x="8" y="90" type="line"/>
      <point x="8" y="0" type="line"/>
    </contour>
    <contour>
      <point x="194" y="0" type="line"/>
      <point x="194" y="520" type="line"/>
      <point x="79" y="520" type="line"/>
      <point x="79" y="0" type="line"/>
    </contour>
    <contour>
      <point x="506" y="0" type="line"/>
      <point x="506" y="89" type="line"/>
      <point x="288" y="89" type="line"/>
      <point x="288" y="0" type="line"/>
    </contour>
    <contour>
      <point x="489" y="76" type="line"/>
      <point x="297" y="241" type="line"/>
      <point x="221" y="186" type="line"/>
      <point x="352" y="76" type="line"/>
    </contour>
    <contour>
      <point x="186" y="430" type="line"/>
      <point x="186" y="520" type="line"/>
      <point x="8" y="520" type="line"/>
      <point x="8" y="430" type="line"/>
    </contour>
    <contour>
      <point x="489" y="261" type="line"/>
      <point x="489" y="357" type="line"/>
      <point x="269" y="357" type="line"/>
      <point x="269" y="261" type="line"/>
    </contour>
    <contour>
      <point x="272" y="367" type="move" name="top"/>
    </contour>
    <contour>
      <point x="272" y="0" type="move" name="bottom"/>
    </contour>
  </outline>
</glyph>
